<svg width="127" height="152" viewBox="0 0 127 152" fill="none" xmlns="http://www.w3.org/2000/svg">
<path d="M2.3 62.4L8 53.2C11.9 57.5 17 59.2 23.1 59.2C29.2 59.2 36.4 56.5 36.4 47V42.1C32.6 46.9 27.4 49.7 21.5 49.7C9.4 49.7 0.2 41.2 0.2 25.1C0.2 9.3 9.3 0.499997 21.5 0.499997C27.3 0.499997 32.5 3 36.4 7.9V1.7H49.2V46.7C49.2 65.1 35 69.6 23.1 69.6C14.8 69.6 8.3 67.7 2.3 62.4ZM36.4 32.9V17.3C34.3 14.1 29.7 11.8 25.5 11.8C18.3 11.8 13.3 16.8 13.3 25.1C13.3 33.4 18.3 38.4 25.5 38.4C29.7 38.4 34.3 36 36.4 32.9ZM55.1961 62.5V54H112.196V62.5H55.1961ZM63.2 150V119.5C63.2 115 61.2 111.8 56 111.8C51.5 111.8 47.8 114.8 46 117.4V150H33.2V119.5C33.2 115 31.2 111.8 26 111.8C21.6 111.8 17.9 114.8 16 117.5V150H3.3V101.7H16V108C18 105.1 24.4 100.5 31.8 100.5C38.9 100.5 43.4 103.8 45.2 109.3C48 104.9 54.4 100.5 61.8 100.5C70.7 100.5 76 105.2 76 115.1V150H63.2ZM84.2563 143.7L89.7563 134.8C93.2563 138.1 100.456 141.4 106.456 141.4C111.956 141.4 114.556 139.5 114.556 136.5C114.556 133.1 110.356 131.9 104.856 130.8C96.5563 129.2 85.8563 127.2 85.8563 115.7C85.8563 107.6 92.9563 100.5 105.656 100.5C113.856 100.5 120.356 103.3 125.056 107.1L120.056 115.8C117.156 112.7 111.656 110.2 105.756 110.2C101.156 110.2 98.1563 111.9 98.1563 114.7C98.1563 117.7 101.956 118.8 107.356 119.9C115.656 121.5 126.756 123.7 126.756 135.7C126.756 144.6 119.256 151.2 105.856 151.2C97.4563 151.2 89.3563 148.4 84.2563 143.7Z" fill="#B4BEFF"/>
</svg>
